<svg width="236" height="33" viewBox="0 0 236 33" fill="none" xmlns="http://www.w3.org/2000/svg">
<path d="M10.9797 24.9C9.53973 24.9 8.18973 24.67 6.92973 24.21C5.68973 23.75 4.60973 23.1 3.68973 22.26C2.76973 21.44 2.03973 20.45 1.49973 19.29C0.979727 18.11 0.719727 16.8 0.719727 15.36V0.689999H5.45973V15.06C5.45973 15.88 5.57973 16.66 5.81973 17.4C6.05973 18.12 6.40973 18.75 6.86973 19.29C7.32973 19.83 7.89973 20.26 8.57973 20.58C9.27973 20.9 10.0797 21.06 10.9797 21.06C11.8797 21.06 12.6697 20.9 13.3497 20.58C14.0497 20.26 14.6297 19.83 15.0897 19.29C15.5697 18.75 15.9297 18.12 16.1697 17.4C16.4097 16.66 16.5297 15.88 16.5297 15.06V0.689999H21.2697V15.36C21.2697 16.8 20.9997 18.11 20.4597 19.29C19.9397 20.45 19.2097 21.44 18.2697 22.26C17.3497 23.1 16.2597 23.75 14.9997 24.21C13.7597 24.67 12.4197 24.9 10.9797 24.9ZM30.1786 8.64C30.4986 8.26 30.8886 7.92 31.3486 7.62C31.8286 7.32 32.3386 7.07 32.8786 6.87C33.4186 6.65 33.9786 6.49 34.5586 6.39C35.1386 6.27 35.6986 6.21 36.2386 6.21C37.3386 6.21 38.3686 6.38 39.3286 6.72C40.2886 7.06 41.1286 7.54 41.8486 8.16C42.5686 8.76 43.1286 9.5 43.5286 10.38C43.9486 11.24 44.1586 12.2 44.1586 13.26V24.3H39.4186V14.88C39.4186 13.12 39.0386 11.85 38.2786 11.07C37.5186 10.27 36.4786 9.87 35.1586 9.87C34.0186 9.87 33.0186 10.26 32.1586 11.04C31.3186 11.8 30.7686 12.86 30.5086 14.22V24.3H25.7686V6.81H29.7886L30.1786 8.64ZM63.067 0.689999H67.807V24.3H63.787L63.217 21.99C62.857 22.45 62.417 22.86 61.897 23.22C61.377 23.6 60.807 23.91 60.187 24.15C59.587 24.41 58.957 24.6 58.297 24.72C57.637 24.86 56.987 24.92 56.347 24.9C55.127 24.88 53.967 24.63 52.867 24.15C51.787 23.67 50.827 23.02 49.987 22.2C49.167 21.38 48.517 20.41 48.037 19.29C47.557 18.15 47.317 16.92 47.317 15.6C47.317 14.24 47.567 12.99 48.067 11.85C48.567 10.69 49.237 9.7 50.077 8.88C50.917 8.04 51.877 7.39 52.957 6.93C54.037 6.45 55.157 6.21 56.317 6.21C57.737 6.21 59.027 6.45 60.187 6.93C61.347 7.39 62.307 8.04 63.067 8.88V0.689999ZM57.277 21.24C57.997 21.24 58.677 21.11 59.317 20.85C59.957 20.59 60.507 20.22 60.967 19.74C61.447 19.24 61.817 18.64 62.077 17.94C62.357 17.24 62.497 16.46 62.497 15.6C62.497 14.7 62.357 13.9 62.077 13.2C61.817 12.5 61.447 11.91 60.967 11.43C60.507 10.93 59.957 10.55 59.317 10.29C58.677 10.03 57.997 9.9 57.277 9.9C56.557 9.9 55.877 10.03 55.237 10.29C54.597 10.55 54.037 10.93 53.557 11.43C53.097 11.91 52.727 12.5 52.447 13.2C52.187 13.9 52.057 14.7 52.057 15.6C52.057 16.46 52.187 17.24 52.447 17.94C52.727 18.64 53.097 19.24 53.557 19.74C54.037 20.22 54.597 20.59 55.237 20.85C55.877 21.11 56.557 21.24 57.277 21.24ZM75.9096 18.54C76.3296 19.5 76.9696 20.24 77.8296 20.76C78.6896 21.28 79.7596 21.54 81.0396 21.54C82.2396 21.54 83.3296 21.34 84.3096 20.94C85.3096 20.54 86.2096 19.86 87.0096 18.9L90.0396 21.21C88.9996 22.47 87.7496 23.45 86.2896 24.15C84.8296 24.85 83.2396 25.2 81.5196 25.2C80.0396 25.2 78.6596 24.97 77.3796 24.51C76.0996 24.07 74.9796 23.43 74.0196 22.59C73.0796 21.77 72.3296 20.77 71.7696 19.59C71.2296 18.39 70.9596 17.05 70.9596 15.57C70.9596 14.13 71.2196 12.82 71.7396 11.64C72.2596 10.44 72.9696 9.42 73.8696 8.58C74.7696 7.72 75.8296 7.06 77.0496 6.6C78.2896 6.12 79.6296 5.88 81.0696 5.88C82.4696 5.88 83.7496 6.11 84.9096 6.57C86.0896 7.03 87.1096 7.67 87.9696 8.49C88.8296 9.29 89.5096 10.26 90.0096 11.4C90.5296 12.52 90.8196 13.75 90.8796 15.09L75.9096 18.54ZM81.2796 9.54C79.4996 9.54 78.0896 10.04 77.0496 11.04C76.0296 12.02 75.4696 13.36 75.3696 15.06L86.1696 12.48C85.6496 11.44 84.9696 10.69 84.1296 10.23C83.2896 9.77 82.3396 9.54 81.2796 9.54ZM98.6196 8.76C99.0396 8.14 99.6196 7.66 100.36 7.32C101.1 6.98 101.97 6.81 102.97 6.81H106.69L105.94 10.47H102.19C101.73 10.47 101.29 10.59 100.87 10.83C100.47 11.05 100.11 11.36 99.7896 11.76C99.4896 12.14 99.2496 12.58 99.0696 13.08C98.8896 13.58 98.7996 14.1 98.7996 14.64V24.3H94.0596V6.81H98.1996L98.6196 8.76ZM128.627 23.55C128.627 24.95 128.387 26.2 127.907 27.3C127.447 28.42 126.797 29.37 125.957 30.15C125.117 30.95 124.117 31.57 122.957 32.01C121.797 32.45 120.527 32.68 119.147 32.7C117.867 32.74 116.637 32.62 115.457 32.34C114.297 32.06 113.257 31.63 112.337 31.05C111.417 30.47 110.657 29.72 110.057 28.8C109.457 27.9 109.097 26.82 108.977 25.56H113.777C113.857 26.7 114.317 27.57 115.157 28.17C116.017 28.77 117.117 29.07 118.457 29.07C119.237 29.07 119.957 28.96 120.617 28.74C121.277 28.52 121.847 28.18 122.327 27.72C122.827 27.26 123.207 26.68 123.467 25.98C123.747 25.3 123.887 24.48 123.887 23.52V21.42C123.147 22.4 122.187 23.12 121.007 23.58C119.827 24.06 118.547 24.3 117.167 24.3C115.947 24.3 114.787 24.08 113.687 23.64C112.607 23.2 111.647 22.58 110.807 21.78C109.987 20.98 109.337 20.03 108.857 18.93C108.377 17.83 108.137 16.62 108.137 15.3C108.137 13.94 108.387 12.7 108.887 11.58C109.387 10.46 110.057 9.51 110.897 8.73C111.737 7.93 112.697 7.31 113.777 6.87C114.857 6.43 115.977 6.21 117.137 6.21C118.577 6.21 119.887 6.45 121.067 6.93C122.247 7.41 123.207 8.09 123.947 8.97L124.487 6.81H128.627V23.55ZM118.097 20.64C118.817 20.64 119.497 20.51 120.137 20.25C120.777 19.99 121.327 19.63 121.787 19.17C122.267 18.69 122.637 18.12 122.897 17.46C123.177 16.8 123.317 16.08 123.317 15.3C123.317 14.48 123.177 13.74 122.897 13.08C122.637 12.42 122.267 11.86 121.787 11.4C121.327 10.92 120.777 10.55 120.137 10.29C119.497 10.03 118.817 9.9 118.097 9.9C117.377 9.9 116.697 10.03 116.057 10.29C115.417 10.55 114.857 10.92 114.377 11.4C113.917 11.86 113.547 12.42 113.267 13.08C113.007 13.74 112.877 14.48 112.877 15.3C112.877 16.08 113.007 16.8 113.267 17.46C113.547 18.12 113.917 18.69 114.377 19.17C114.857 19.63 115.417 19.99 116.057 20.25C116.697 20.51 117.377 20.64 118.097 20.64ZM137.526 8.76C137.946 8.14 138.526 7.66 139.266 7.32C140.006 6.98 140.876 6.81 141.876 6.81H145.596L144.846 10.47H141.096C140.636 10.47 140.196 10.59 139.776 10.83C139.376 11.05 139.016 11.36 138.696 11.76C138.396 12.14 138.156 12.58 137.976 13.08C137.796 13.58 137.706 14.1 137.706 14.64V24.3H132.966V6.81H137.106L137.526 8.76ZM157.274 21.57C158.054 21.57 158.784 21.42 159.464 21.12C160.144 20.84 160.724 20.44 161.204 19.92C161.704 19.38 162.094 18.75 162.374 18.03C162.654 17.29 162.794 16.48 162.794 15.6C162.794 14.7 162.654 13.88 162.374 13.14C162.094 12.38 161.704 11.74 161.204 11.22C160.724 10.7 160.144 10.3 159.464 10.02C158.784 9.72 158.054 9.57 157.274 9.57C156.474 9.57 155.734 9.72 155.054 10.02C154.394 10.32 153.814 10.74 153.314 11.28C152.834 11.8 152.454 12.43 152.174 13.17C151.894 13.91 151.754 14.72 151.754 15.6C151.754 16.48 151.894 17.29 152.174 18.03C152.454 18.75 152.834 19.38 153.314 19.92C153.814 20.44 154.394 20.84 155.054 21.12C155.734 21.42 156.474 21.57 157.274 21.57ZM147.044 15.6C147.044 14.12 147.314 12.78 147.854 11.58C148.394 10.38 149.124 9.36 150.044 8.52C150.984 7.68 152.074 7.04 153.314 6.6C154.554 6.14 155.874 5.91 157.274 5.91C158.654 5.91 159.964 6.14 161.204 6.6C162.444 7.04 163.524 7.68 164.444 8.52C165.384 9.36 166.124 10.38 166.664 11.58C167.224 12.78 167.504 14.12 167.504 15.6C167.504 17.08 167.224 18.41 166.664 19.59C166.124 20.77 165.384 21.77 164.444 22.59C163.524 23.43 162.444 24.07 161.204 24.51C159.964 24.97 158.654 25.2 157.274 25.2C155.874 25.2 154.554 24.97 153.314 24.51C152.074 24.07 150.984 23.43 150.044 22.59C149.124 21.77 148.394 20.77 147.854 19.59C147.314 18.41 147.044 17.08 147.044 15.6ZM184.621 22.47C184.301 22.85 183.901 23.19 183.421 23.49C182.961 23.79 182.461 24.04 181.921 24.24C181.381 24.46 180.821 24.62 180.241 24.72C179.681 24.84 179.131 24.9 178.591 24.9C177.491 24.9 176.461 24.73 175.501 24.39C174.541 24.05 173.701 23.57 172.981 22.95C172.261 22.35 171.691 21.62 171.271 20.76C170.871 19.88 170.671 18.91 170.671 17.85V6.81H175.411V16.23C175.411 17.99 175.791 19.27 176.551 20.07C177.311 20.85 178.351 21.24 179.671 21.24C180.811 21.24 181.801 20.86 182.641 20.1C183.501 19.32 184.061 18.25 184.321 16.89V6.81H189.061V24.3H185.041L184.621 22.47ZM197.815 8.64C198.135 8.26 198.525 7.92 198.985 7.62C199.465 7.32 199.975 7.07 200.515 6.87C201.055 6.65 201.615 6.49 202.195 6.39C202.775 6.27 203.335 6.21 203.875 6.21C204.975 6.21 206.005 6.38 206.965 6.72C207.925 7.06 208.765 7.54 209.485 8.16C210.205 8.76 210.765 9.5 211.165 10.38C211.585 11.24 211.795 12.2 211.795 13.26V24.3H207.055V14.88C207.055 13.12 206.675 11.85 205.915 11.07C205.155 10.27 204.115 9.87 202.795 9.87C201.655 9.87 200.655 10.26 199.795 11.04C198.955 11.8 198.405 12.86 198.145 14.22V24.3H193.405V6.81H197.425L197.815 8.64ZM230.704 0.689999H235.444V24.3H231.424L230.854 21.99C230.494 22.45 230.054 22.86 229.534 23.22C229.014 23.6 228.444 23.91 227.824 24.15C227.224 24.41 226.594 24.6 225.934 24.72C225.274 24.86 224.624 24.92 223.984 24.9C222.764 24.88 221.604 24.63 220.504 24.15C219.424 23.67 218.464 23.02 217.624 22.2C216.804 21.38 216.154 20.41 215.674 19.29C215.194 18.15 214.954 16.92 214.954 15.6C214.954 14.24 215.204 12.99 215.704 11.85C216.204 10.69 216.874 9.7 217.714 8.88C218.554 8.04 219.514 7.39 220.594 6.93C221.674 6.45 222.794 6.21 223.954 6.21C225.374 6.21 226.664 6.45 227.824 6.93C228.984 7.39 229.944 8.04 230.704 8.88V0.689999ZM224.914 21.24C225.634 21.24 226.314 21.11 226.954 20.85C227.594 20.59 228.144 20.22 228.604 19.74C229.084 19.24 229.454 18.64 229.714 17.94C229.994 17.24 230.134 16.46 230.134 15.6C230.134 14.7 229.994 13.9 229.714 13.2C229.454 12.5 229.084 11.91 228.604 11.43C228.144 10.93 227.594 10.55 226.954 10.29C226.314 10.03 225.634 9.9 224.914 9.9C224.194 9.9 223.514 10.03 222.874 10.29C222.234 10.55 221.674 10.93 221.194 11.43C220.734 11.91 220.364 12.5 220.084 13.2C219.824 13.9 219.694 14.7 219.694 15.6C219.694 16.46 219.824 17.24 220.084 17.94C220.364 18.64 220.734 19.24 221.194 19.74C221.674 20.22 222.234 20.59 222.874 20.85C223.514 21.11 224.194 21.24 224.914 21.24Z" fill="white"/>
</svg>
