<svg width="228" height="229" viewBox="0 0 228 229" fill="none" xmlns="http://www.w3.org/2000/svg">
<path d="M54.2236 106.924C54.2236 100.631 59.3249 95.53 65.6176 95.53L171.011 95.53C177.304 95.53 182.405 100.631 182.405 106.924L182.405 169.591C182.405 175.883 177.304 180.985 171.012 180.985L65.6176 180.985C59.3249 180.985 54.2236 175.883 54.2236 169.591L54.2236 106.924Z" fill="#302E2E"/>
<path d="M54.2256 106.924C54.2256 100.632 59.3268 95.5303 65.6195 95.5303H171.013C177.306 95.5303 182.407 100.632 182.407 106.924V109.773C182.407 116.065 177.306 121.167 171.013 121.167H65.6195C59.3268 121.167 54.2256 116.065 54.2256 109.773V106.924Z" fill="#302E2E"/>
<mask id="mask0_3689_14003" style="mask-type:alpha" maskUnits="userSpaceOnUse" x="54" y="95" width="129" height="27">
<path d="M54.2256 106.924C54.2256 100.632 59.3268 95.5303 65.6195 95.5303H171.013C177.306 95.5303 182.407 100.632 182.407 106.924V109.773C182.407 116.065 177.306 121.167 171.013 121.167H65.6195C59.3268 121.167 54.2256 116.065 54.2256 109.773V106.924Z" fill="#D9D9D9"/>
</mask>
<g mask="url(#mask0_3689_14003)">
<path d="M72.8148 83.4792H89.4342L65.6214 136.066H49.002L72.8148 83.4792Z" fill="#737373"/>
<path d="M106.301 83.4792H122.921L99.1077 136.066H82.4883L106.301 83.4792Z" fill="#737373"/>
<path d="M139.787 83.4792H156.407L132.594 136.066H115.975L139.787 83.4792Z" fill="#737373"/>
<path d="M173.277 83.4792H189.896L166.083 136.066H149.464L173.277 83.4792Z" fill="#737373"/>
</g>
<path d="M49.8035 73.9986C48.1748 67.9203 51.7819 61.6726 57.8602 60.044L159.663 32.766C165.741 31.1373 171.989 34.7444 173.618 40.8227L175.092 46.3256C176.721 52.4039 173.114 58.6516 167.035 60.2802L65.2326 87.5582C59.1543 89.1869 52.9066 85.5797 51.2779 79.5015L49.8035 73.9986Z" fill="#302E2E"/>
<mask id="mask1_3689_14003" style="mask-type:alpha" maskUnits="userSpaceOnUse" x="49" y="32" width="127" height="56">
<path d="M49.8035 73.9986C48.1748 67.9203 51.7819 61.6726 57.8602 60.044L159.663 32.766C165.741 31.1373 171.989 34.7444 173.618 40.8227L175.092 46.3256C176.721 52.4039 173.114 58.6516 167.035 60.2802L65.2326 87.5582C59.1543 89.1869 52.9066 85.5797 51.2779 79.5015L49.8035 73.9986Z" fill="#D9D9D9"/>
</mask>
<g mask="url(#mask1_3689_14003)">
<path d="M61.6919 46.5416L77.745 42.2402L68.3541 99.1986L52.3009 103.5L61.6919 46.5416Z" fill="#737373"/>
<path d="M94.0376 37.8744L110.091 33.573L100.7 90.5313L84.6466 94.8327L94.0376 37.8744Z" fill="#737373"/>
<path d="M126.383 29.2074L142.436 24.906L133.045 81.8643L116.992 86.1657L126.383 29.2074Z" fill="#737373"/>
<path d="M158.729 20.5401L174.782 16.2387L165.391 73.1971L149.338 77.4985L158.729 20.5401Z" fill="#737373"/>
</g>
<path d="M68.2767 186.764C45.834 194.056 21.7293 181.774 14.4372 159.332C7.14516 136.889 19.4271 112.784 41.8698 105.492C64.3125 98.2002 88.4172 110.482 95.7093 132.925C103.001 155.368 90.7194 179.472 68.2767 186.764Z" fill="#505050"/>
<path d="M39.3827 148.633C41.5276 149.089 42.3746 151.695 40.9074 153.325L27.2741 168.466C26.538 169.284 25.4 169.544 24.5938 168.795C23.1708 167.475 20.9241 164.497 18.7867 157.919C16.6492 151.34 16.7166 147.611 17.0915 145.706C17.3039 144.627 18.3774 144.168 19.4534 144.397L39.3827 148.633Z" fill="#747474"/>
<path d="M57.7147 154.255C53.2262 155.714 48.4052 153.257 46.9468 148.769C45.4884 144.28 47.9448 139.459 52.4333 138.001C56.9219 136.543 61.7428 138.999 63.2012 143.488C64.6597 147.976 62.2033 152.797 57.7147 154.255Z" fill="#747474"/>
<path d="M47.8471 131.985C48.0763 134.166 45.8588 135.777 43.8556 134.885L25.2425 126.598C24.2376 126.151 23.6386 125.149 24.1012 124.151C24.9176 122.389 27.0553 119.332 32.6511 115.267C38.2469 111.201 41.8149 110.113 43.7424 109.881C44.8345 109.749 45.6024 110.628 45.7173 111.722L47.8471 131.985Z" fill="#747474"/>
<path d="M66.2948 134.879C64.2916 135.771 62.0741 134.16 62.3033 131.979L64.4331 111.716C64.548 110.622 65.3159 109.743 66.408 109.874C68.3355 110.107 71.9034 111.195 77.4993 115.261C83.0951 119.326 85.2328 122.383 86.0492 124.145C86.5118 125.143 85.9128 126.145 84.9079 126.592L66.2948 134.879Z" fill="#747474"/>
<path d="M69.25 153.329C67.7828 151.699 68.6298 149.092 70.7746 148.636L90.704 144.4C91.78 144.171 92.8535 144.63 93.0659 145.709C93.4407 147.614 93.5081 151.344 91.3707 157.922C89.2333 164.5 86.9865 167.478 85.5636 168.799C84.7574 169.547 83.6193 169.287 82.8833 168.47L69.25 153.329Z" fill="#747474"/>
<path d="M52.6082 161.825C53.7046 159.926 56.4455 159.926 57.5419 161.825L67.7292 179.47C68.2792 180.422 68.1749 181.585 67.214 182.121C65.5182 183.066 61.9919 184.282 55.0751 184.282C48.1582 184.282 44.6319 183.066 42.9361 182.121C41.9753 181.585 41.8709 180.422 42.4209 179.47L52.6082 161.825Z" fill="#747474"/>
<circle cx="182.404" cy="174.79" r="30.1203" fill="black"/>
<path fill-rule="evenodd" clip-rule="evenodd" d="M168.296 178.793C166.723 178.793 165.447 180.068 165.447 181.641V183.451C165.447 188.17 169.273 191.996 173.993 191.996L190.817 191.996C195.537 191.996 199.363 188.17 199.363 183.451V181.641C199.363 180.068 198.088 178.793 196.514 178.793C194.941 178.793 193.666 180.068 193.666 181.641V183.451C193.666 185.024 192.391 186.299 190.817 186.299L173.993 186.299C172.42 186.299 171.144 185.024 171.144 183.451V181.641C171.144 180.068 169.869 178.793 168.296 178.793Z" fill="white"/>
<path fill-rule="evenodd" clip-rule="evenodd" d="M182.404 153.681C183.978 153.681 185.253 154.957 185.253 156.53L185.253 179.062C185.253 180.635 183.978 181.911 182.404 181.911C180.831 181.911 179.556 180.635 179.556 179.062L179.556 156.53C179.556 154.957 180.831 153.681 182.404 153.681Z" fill="white"/>
<path fill-rule="evenodd" clip-rule="evenodd" d="M170.157 166.814C171.269 165.702 173.073 165.702 174.185 166.814L177.195 169.824L184.419 177.048C185.531 178.16 185.531 179.964 184.419 181.076C183.306 182.189 181.503 182.189 180.39 181.076L173.167 173.853L170.157 170.843C169.044 169.73 169.044 167.927 170.157 166.814Z" fill="white"/>
<path fill-rule="evenodd" clip-rule="evenodd" d="M180.391 181.076C179.279 179.964 179.279 178.16 180.391 177.048L183.401 174.038L190.625 166.814C191.737 165.702 193.541 165.702 194.653 166.814C195.765 167.926 195.765 169.73 194.653 170.842L187.429 178.066L184.419 181.076C183.307 182.188 181.503 182.189 180.391 181.076Z" fill="white"/>
</svg>
