<svg width="230" height="230" viewBox="0 0 230 230" fill="none" xmlns="http://www.w3.org/2000/svg">
<path d="M55.0723 107.309C55.0723 101.001 60.1864 95.8865 66.495 95.8865L172.156 95.8865C178.464 95.8865 183.579 101.001 183.579 107.309L183.579 170.135C183.579 176.443 178.464 181.557 172.156 181.557L66.4951 181.557C60.1864 181.557 55.0723 176.443 55.0723 170.135L55.0723 107.309Z" fill="#302E2E"/>
<path d="M55.0742 107.309C55.0742 101.001 60.1884 95.8867 66.497 95.8867H172.158C178.466 95.8867 183.58 101.001 183.58 107.309V110.165C183.58 116.474 178.466 121.588 172.158 121.588H66.497C60.1884 121.588 55.0742 116.474 55.0742 110.165V107.309Z" fill="#302E2E"/>
<mask id="mask0_3689_12535" style="mask-type:alpha" maskUnits="userSpaceOnUse" x="55" y="95" width="129" height="27">
<path d="M55.0742 107.309C55.0742 101.001 60.1884 95.8867 66.497 95.8867H172.158C178.466 95.8867 183.58 101.001 183.58 107.309V110.165C183.58 116.474 178.466 121.588 172.158 121.588H66.497C60.1884 121.588 55.0742 116.474 55.0742 110.165V107.309Z" fill="#D9D9D9"/>
</mask>
<g mask="url(#mask0_3689_12535)">
<path d="M73.7101 83.8052H90.3715L66.4984 136.525H49.8369L73.7101 83.8052Z" fill="#737373"/>
<path d="M107.281 83.8052H123.943L100.07 136.525H83.4082L107.281 83.8052Z" fill="#737373"/>
<path d="M140.853 83.8052H157.514L133.641 136.525H116.979L140.853 83.8052Z" fill="#737373"/>
<path d="M174.426 83.8052H191.087L167.214 136.525H150.553L174.426 83.8052Z" fill="#737373"/>
</g>
<path d="M50.641 74.3004C49.0082 68.2067 52.6245 61.9432 58.7181 60.3104L160.779 32.9634C166.872 31.3306 173.136 34.9469 174.769 41.0405L176.247 46.5573C177.88 52.651 174.263 58.9145 168.17 60.5473L66.1092 87.8943C60.0155 89.5271 53.752 85.9108 52.1192 79.8172L50.641 74.3004Z" fill="#302E2E"/>
<mask id="mask1_3689_12535" style="mask-type:alpha" maskUnits="userSpaceOnUse" x="50" y="32" width="127" height="57">
<path d="M50.641 74.3004C49.0082 68.2067 52.6245 61.9432 58.7181 60.3104L160.779 32.9634C166.872 31.3306 173.136 34.9469 174.769 41.0405L176.247 46.5573C177.88 52.651 174.263 58.9145 168.17 60.5473L66.1092 87.8943C60.0155 89.5271 53.752 85.9108 52.1192 79.8172L50.641 74.3004Z" fill="#D9D9D9"/>
</mask>
<g mask="url(#mask1_3689_12535)">
<path d="M62.5597 46.7738L78.6534 42.4615L69.2387 99.5641L53.145 103.876L62.5597 46.7738Z" fill="#737373"/>
<path d="M94.9874 38.0846L111.081 33.7723L101.666 90.8748L85.5727 95.1871L94.9874 38.0846Z" fill="#737373"/>
<path d="M127.415 29.3956L143.509 25.0833L134.094 82.1859L118 86.4982L127.415 29.3956Z" fill="#737373"/>
<path d="M159.843 20.7064L175.937 16.3941L166.522 73.4967L150.428 77.809L159.843 20.7064Z" fill="#737373"/>
</g>
<path d="M69.1596 187.351C46.6602 194.662 22.4944 182.349 15.1839 159.849C7.87333 137.35 20.1864 113.184 42.6859 105.874C65.1854 98.5631 89.3512 110.876 96.6617 133.376C103.972 155.875 91.6591 180.041 69.1596 187.351Z" fill="#505050"/>
<path d="M40.1922 149.123C42.3425 149.58 43.1917 152.194 41.7207 153.827L28.0529 169.007C27.315 169.827 26.1741 170.087 25.3658 169.337C23.9393 168.013 21.6868 165.028 19.544 158.433C17.4012 151.838 17.4687 148.099 17.8445 146.189C18.0575 145.107 19.1337 144.647 20.2124 144.876L40.1922 149.123Z" fill="#747474"/>
<path d="M58.5708 154.76C54.0709 156.222 49.2377 153.76 47.7756 149.26C46.3135 144.76 48.7762 139.927 53.276 138.465C57.7759 137.002 62.6091 139.465 64.0712 143.965C65.5333 148.465 63.0707 153.298 58.5708 154.76Z" fill="#747474"/>
<path d="M48.6779 132.434C48.9077 134.62 46.6846 136.235 44.6763 135.341L26.0161 127.033C25.0086 126.585 24.4081 125.58 24.8719 124.579C25.6904 122.814 27.8335 119.749 33.4435 115.673C39.0535 111.597 42.6304 110.506 44.5628 110.273C45.6577 110.141 46.4275 111.023 46.5428 112.12L48.6779 132.434Z" fill="#747474"/>
<path d="M67.1728 135.335C65.1646 136.229 62.9415 134.614 63.1713 132.428L65.3064 112.113C65.4216 111.017 66.1915 110.135 67.2863 110.267C69.2187 110.5 72.7957 111.591 78.4057 115.667C84.0157 119.743 86.1588 122.807 86.9773 124.573C87.441 125.574 86.8405 126.578 85.8331 127.027L67.1728 135.335Z" fill="#747474"/>
<path d="M70.1357 153.831C68.6647 152.197 69.5139 149.584 71.6642 149.127L91.644 144.88C92.7227 144.651 93.7989 145.11 94.0119 146.192C94.3877 148.102 94.4552 151.841 92.3124 158.436C90.1696 165.031 87.9171 168.016 86.4906 169.341C85.6823 170.091 84.5414 169.83 83.8035 169.011L70.1357 153.831Z" fill="#747474"/>
<path d="M53.4512 162.349C54.5504 160.445 57.2983 160.445 58.3974 162.349L68.6105 180.038C69.1619 180.993 69.0573 182.159 68.094 182.696C66.3939 183.643 62.8587 184.863 55.9243 184.863C48.99 184.863 45.4548 183.643 43.7547 182.696C42.7914 182.159 42.6867 180.993 43.2381 180.038L53.4512 162.349Z" fill="#747474"/>
<path d="M213.775 175.346C213.775 192.024 200.256 205.543 183.578 205.543C166.901 205.543 153.382 192.024 153.382 175.346C153.382 158.669 166.901 145.15 183.578 145.15C200.256 145.15 213.775 158.669 213.775 175.346Z" fill="black"/>
<path fill-rule="evenodd" clip-rule="evenodd" d="M180.345 178.58V190.103C180.345 191.889 181.793 193.337 183.579 193.337C185.365 193.337 186.813 191.889 186.813 190.103V178.58L198.336 178.58C200.122 178.58 201.57 177.132 201.57 175.346C201.57 173.56 200.122 172.112 198.336 172.112L186.813 172.112V160.589C186.813 158.803 185.365 157.355 183.579 157.355C181.793 157.355 180.345 158.803 180.345 160.589V172.112L168.822 172.112C167.036 172.112 165.588 173.56 165.588 175.346C165.588 177.132 167.036 178.58 168.822 178.58L180.345 178.58Z" fill="white"/>
</svg>
